<svg width="800" height="800" viewBox="0 0 800 800" fill="none" xmlns="http://www.w3.org/2000/svg">
<rect width="800" height="800" rx="35" fill="#292B31"/>
<rect x="143" y="143" width="514" height="514" rx="65" fill="#C9D1EB"/>
<circle cx="284" cy="284" r="84" fill="#292B31"/>
<path d="M565 284C584.33 284 600.636 300.32 592.813 317.996C590.867 322.393 588.539 326.634 585.843 330.668C576.613 344.482 563.494 355.248 548.145 361.606C532.796 367.964 515.907 369.627 499.612 366.386C483.318 363.145 468.351 355.145 456.603 343.397C444.855 331.649 436.855 316.682 433.614 300.388C430.373 284.093 432.036 267.204 438.394 251.855C444.752 236.506 455.518 223.387 469.332 214.157C473.366 211.461 477.607 209.133 482.004 207.187C499.68 199.364 516 215.67 516 235L516 249C516 268.33 531.67 284 551 284H565Z" fill="#292B31"/>
<circle cx="516" cy="516" r="84" fill="#292B31"/>
<path d="M333 516C352.33 516 368.636 532.32 360.813 549.996C358.867 554.393 356.539 558.634 353.843 562.668C344.613 576.482 331.494 587.248 316.145 593.606C300.796 599.964 283.907 601.627 267.612 598.386C251.318 595.145 236.351 587.145 224.603 575.397C212.855 563.649 204.855 548.682 201.614 532.388C198.373 516.093 200.036 499.204 206.394 483.855C212.752 468.506 223.518 455.387 237.332 446.157C241.366 443.461 245.607 441.133 250.004 439.187C267.68 431.364 284 447.67 284 467L284 481C284 500.33 299.67 516 319 516H333Z" fill="#292B31"/>
</svg>
