<svg width="800" height="800" viewBox="0 0 800 800" fill="none" xmlns="http://www.w3.org/2000/svg">
<rect width="800" height="800" rx="35" fill="#292B31"/>
<path d="M658 425.639C658 482.756 630.765 537.534 582.287 577.922C533.809 618.31 468.058 641 399.5 641C330.942 641 265.191 618.31 216.713 577.922C168.235 537.534 141 482.756 141 425.639L399.5 425.639H658Z" fill="#C9D1EB"/>
<path d="M141 373.361C141 316.244 168.235 261.466 216.713 221.078C265.191 180.69 330.942 158 399.5 158C468.058 158 533.809 180.69 582.287 221.078C630.765 261.466 658 316.244 658 373.361L399.5 373.361L141 373.361Z" fill="#C9D1EB"/>
</svg>
